<svg width="33" height="32" viewBox="0 0 33 32" fill="none" xmlns="http://www.w3.org/2000/svg">
<path d="M15.3392 0C23.8066 0.0105918 30.6681 7.14536 30.6783 15.949V15.95C30.6784 15.9662 30.6784 15.9852 30.6784 16.0043C30.6784 19.8971 29.3199 23.4599 27.069 26.2082L27.0867 26.1861L32.1 31.9H15.3392C6.86757 31.9 0 24.759 0 15.95C0 7.14106 6.86757 0 15.3392 0ZM27.0119 29.5659L24.0324 26.1643L24.7671 25.3769C27.0349 22.9583 28.4336 19.6491 28.4336 16.0002C28.4336 15.9826 28.4336 15.9649 28.4335 15.9472V15.95C28.4335 8.43014 22.571 2.33415 15.3392 2.33415C8.10728 2.33415 2.24476 8.43017 2.24476 15.95C2.24476 23.4699 8.10731 29.5659 15.3392 29.5659H27.0119Z" fill="#253A14"/>
</svg>
