<svg width="128" height="49" viewBox="0 0 128 49" fill="none" xmlns="http://www.w3.org/2000/svg">
<mask id="mask0_935_93" style="mask-type:luminance" maskUnits="userSpaceOnUse" x="44" y="2" width="40" height="28">
<path d="M44.2812 2.2832H83.5232V29.6109H44.2812V2.2832Z" fill="white"/>
</mask>
<g mask="url(#mask0_935_93)">
<path d="M82.9151 26.5038C82.8342 26.5038 82.7569 26.52 82.6813 26.5505C82.6058 26.5811 82.5393 26.6243 82.4818 26.6818C82.4242 26.7393 82.3793 26.8041 82.3487 26.8796C82.3181 26.9533 82.3019 27.0324 82.3019 27.1115V28.6561C75.4817 23.5908 67.4909 14.4025 64.4647 2.9126C64.4287 2.77954 64.355 2.67165 64.2453 2.58714C64.1357 2.50263 64.0116 2.45947 63.8713 2.45947H63.7706C63.6322 2.45947 63.5063 2.50083 63.3948 2.58534C63.2851 2.66985 63.2114 2.77954 63.1755 2.9126C59.9874 15.0175 51.9768 24.5798 45.5037 28.7568V27.1115C45.5037 27.0324 45.4875 26.9533 45.4569 26.8796C45.4263 26.8041 45.3814 26.7393 45.3238 26.6818C45.2663 26.6243 45.1998 26.5811 45.1243 26.5505C45.0487 26.52 44.9714 26.5038 44.8905 26.5038C44.8078 26.5038 44.7305 26.52 44.6549 26.5505C44.5794 26.5811 44.5129 26.6243 44.4572 26.6818C44.3996 26.7393 44.3547 26.8041 44.3241 26.8796C44.2917 26.9533 44.2773 27.0324 44.2773 27.1115V30.7653C44.2773 30.8462 44.2917 30.9235 44.3241 30.9972C44.3547 31.0728 44.3996 31.1375 44.4572 31.195C44.5129 31.2526 44.5794 31.2957 44.6549 31.3263C44.7305 31.3587 44.8078 31.3731 44.8905 31.3731C44.9714 31.3731 45.0487 31.3587 45.1243 31.3263C45.1998 31.2957 45.2663 31.2526 45.3238 31.195C45.3814 31.1375 45.4263 31.0728 45.4569 30.9972C45.4875 30.9235 45.5037 30.8462 45.5037 30.7653V30.1953C51.9427 26.324 60.1277 17.0349 63.8228 5.10809C67.392 16.4236 75.5339 25.362 82.3019 30.1557V30.7653C82.3019 30.8462 82.3181 30.9235 82.3487 30.9972C82.3793 31.0728 82.4242 31.1375 82.4818 31.195C82.5393 31.2526 82.6058 31.2957 82.6813 31.3263C82.7569 31.3587 82.8342 31.3731 82.9151 31.3731C82.9978 31.3731 83.0751 31.3587 83.1507 31.3263C83.2262 31.2957 83.2927 31.2526 83.3484 31.195C83.406 31.1375 83.4509 31.0728 83.4815 30.9972C83.5139 30.9235 83.5283 30.8462 83.5283 30.7653V27.1115C83.5283 27.0324 83.5139 26.9533 83.4815 26.8796C83.4509 26.8041 83.406 26.7393 83.3484 26.6818C83.2927 26.6243 83.2262 26.5811 83.1507 26.5505C83.0751 26.52 82.9978 26.5038 82.9151 26.5038Z" fill="#32501A"/>
</g>
<mask id="mask1_935_93" style="mask-type:luminance" maskUnits="userSpaceOnUse" x="44" y="6" width="7" height="14">
<path d="M44.2812 6.8877H50.2492V19.7765H44.2812V6.8877Z" fill="white"/>
</mask>
<g mask="url(#mask1_935_93)">
<path d="M44.8395 15.7427C44.906 15.7895 44.9797 15.8201 45.0588 15.838C45.1379 15.856 45.2189 15.8578 45.298 15.8434C45.3789 15.8308 45.4526 15.8021 45.5227 15.7571C45.5911 15.714 45.6486 15.66 45.6953 15.5935L46.7257 14.1298V18.8948C46.7257 18.9757 46.7418 19.0531 46.7724 19.1286C46.803 19.2023 46.8479 19.2688 46.9055 19.3264C46.963 19.3821 47.0295 19.4271 47.1051 19.4576C47.1788 19.4882 47.2579 19.5044 47.3388 19.5044C47.4197 19.5044 47.4989 19.4882 47.5744 19.4576C47.6481 19.4271 47.7146 19.3821 47.7722 19.3264C47.8297 19.2688 47.8747 19.2023 47.9052 19.1286C47.9358 19.0531 47.952 18.9757 47.952 18.8948V14.1298L48.9823 15.5899C49.029 15.6564 49.0866 15.7104 49.1549 15.7535C49.2232 15.7985 49.2988 15.8272 49.3779 15.8398C49.4588 15.8542 49.5379 15.8524 49.617 15.8362C49.6961 15.8183 49.7699 15.7859 49.8364 15.7409C49.9029 15.6942 49.9587 15.6367 50.0018 15.5683C50.045 15.5018 50.0755 15.4281 50.0881 15.3472C50.1025 15.268 50.1025 15.1889 50.0845 15.1098C50.0666 15.0325 50.0342 14.9588 49.9892 14.894L47.952 12.0081V10.1362L48.655 11.287C48.6874 11.3679 48.7377 11.4381 48.8025 11.4992C48.8672 11.5585 48.9409 11.6035 49.0254 11.6323C49.11 11.6592 49.1963 11.6682 49.2844 11.661C49.3725 11.652 49.4552 11.6251 49.5307 11.5801C49.608 11.5352 49.671 11.4776 49.7231 11.4057C49.7735 11.3338 49.8076 11.2547 49.8238 11.1684C49.84 11.082 49.8382 10.9957 49.8166 10.9094C49.7968 10.8249 49.7573 10.7476 49.7033 10.6775L47.8639 7.63507C47.8369 7.59011 47.8027 7.54876 47.765 7.511C47.7272 7.47504 47.6859 7.44447 47.6391 7.4175C47.5942 7.39232 47.5456 7.37254 47.4935 7.35816C47.4431 7.34557 47.391 7.33838 47.337 7.33838C47.2849 7.33838 47.2327 7.34557 47.1806 7.35816C47.1302 7.37254 47.0817 7.39232 47.0349 7.4175C46.99 7.44447 46.9468 7.47504 46.9091 7.511C46.8713 7.54876 46.8389 7.59011 46.812 7.63507L44.9707 10.6775C44.9096 10.8195 44.9042 10.9634 44.9527 11.109C45.0013 11.2547 45.0912 11.3661 45.226 11.4435C45.3591 11.5226 45.503 11.546 45.654 11.5154C45.8068 11.4848 45.9291 11.4093 46.0226 11.287L46.7257 10.1362V12.0081L44.6902 14.894C44.6417 14.9588 44.6093 15.0325 44.5931 15.1116C44.5751 15.1889 44.5733 15.2698 44.5877 15.349C44.6003 15.4281 44.6309 15.5018 44.674 15.5701C44.7172 15.6384 44.7729 15.696 44.8395 15.7427Z" fill="#32501A"/>
</g>
<path d="M80.1578 25.287C80.2405 25.287 80.3178 25.2708 80.3933 25.2403C80.4688 25.2097 80.5354 25.1647 80.5929 25.109C80.6505 25.0515 80.6936 24.9849 80.726 24.9112C80.7565 24.8357 80.7709 24.7584 80.7709 24.6775V21.7897L81.1881 22.3993C81.2348 22.4658 81.2924 22.5197 81.3607 22.5647C81.429 22.6078 81.5046 22.6366 81.5837 22.651C81.6646 22.6654 81.7437 22.6636 81.8228 22.6474C81.9037 22.6294 81.9757 22.5988 82.044 22.5521C82.1105 22.5071 82.1663 22.4496 82.2094 22.3813C82.2544 22.313 82.2831 22.2392 82.2975 22.1601C82.3119 22.081 82.3101 22.0019 82.2939 21.9228C82.2759 21.8436 82.2436 21.7717 82.1986 21.7052L80.7709 19.6535V18.9829L80.9471 19.2885C80.9831 19.3659 81.0335 19.4342 81.0982 19.4917C81.1629 19.5493 81.2366 19.5906 81.3193 19.6176C81.4003 19.6428 81.4848 19.6517 81.5711 19.6428C81.6574 19.6338 81.7383 19.6068 81.8138 19.5636C81.8893 19.5205 81.9523 19.4629 82.0026 19.3946C82.053 19.3245 82.0871 19.2472 82.1051 19.1627C82.1231 19.0782 82.1231 18.9936 82.1051 18.9109C82.0871 18.8264 82.053 18.7491 82.0008 18.679L80.6864 16.4601C80.6594 16.4152 80.6271 16.3738 80.5875 16.336C80.5498 16.3001 80.5084 16.2677 80.4617 16.2425C80.4149 16.2156 80.3664 16.1958 80.316 16.1832C80.2639 16.1688 80.2117 16.1616 80.1578 16.1616C80.1056 16.1616 80.0535 16.1688 80.0013 16.1832C79.9492 16.1958 79.9006 16.2156 79.8557 16.2425C79.8089 16.2677 79.7658 16.3001 79.728 16.336C79.6903 16.3738 79.6579 16.4152 79.6309 16.4601L78.3183 18.652C78.268 18.7221 78.2338 18.7976 78.214 18.8822C78.196 18.9667 78.196 19.0512 78.214 19.1357C78.232 19.2202 78.2662 19.2975 78.3183 19.3659C78.3687 19.436 78.4316 19.4935 78.5071 19.5367C78.5808 19.5798 78.6617 19.605 78.7481 19.6158C78.8344 19.6248 78.9189 19.6158 79.0016 19.5888C79.0843 19.5636 79.158 19.5223 79.2228 19.4647C79.2875 19.4072 79.3378 19.3389 79.3738 19.2598L79.5482 18.9559V19.6266L78.1259 21.6674C78.0792 21.734 78.0468 21.8077 78.0306 21.8868C78.0126 21.9659 78.0108 22.045 78.0252 22.1241C78.0396 22.2033 78.0702 22.277 78.1133 22.3453C78.1583 22.4118 78.214 22.4694 78.2805 22.5161C78.3471 22.5611 78.4208 22.5935 78.4999 22.6096C78.579 22.6276 78.6599 22.6294 78.7391 22.615C78.82 22.6006 78.8937 22.5701 78.962 22.5269C79.0304 22.4838 79.0879 22.428 79.1346 22.3615L79.5518 21.7537V24.6775C79.5518 24.7584 79.5662 24.8357 79.5968 24.9094C79.6273 24.9831 79.6723 25.0497 79.728 25.1072C79.7856 25.163 79.8521 25.2079 79.9258 25.2385C79.9995 25.2708 80.0769 25.2852 80.1578 25.287Z" fill="#32501A"/>
<mask id="mask2_935_93" style="mask-type:luminance" maskUnits="userSpaceOnUse" x="52" y="0" width="7" height="13">
<path d="M52.5625 0H58.5466V12.4105H52.5625V0Z" fill="white"/>
</mask>
<g mask="url(#mask2_935_93)">
<path d="M53.1264 8.43674C53.1929 8.48349 53.2667 8.51586 53.3458 8.53384C53.4249 8.55182 53.504 8.55362 53.5849 8.53923C53.6658 8.52485 53.7396 8.49608 53.8079 8.45292C53.878 8.40977 53.9356 8.35403 53.9823 8.2875L55.0126 6.82384V11.5906C55.0126 11.6715 55.027 11.7489 55.0594 11.8244C55.0899 11.8981 55.1349 11.9646 55.1924 12.0204C55.25 12.0779 55.3147 12.1229 55.3902 12.1534C55.4657 12.184 55.5449 12.2002 55.6258 12.2002C55.7067 12.2002 55.7858 12.184 55.8595 12.1534C55.935 12.1229 56.0016 12.0779 56.0591 12.0204C56.1167 11.9646 56.1616 11.8981 56.1922 11.8244C56.2227 11.7489 56.2389 11.6715 56.2389 11.5906V6.82384L57.2692 8.2857C57.316 8.35223 57.3735 8.40617 57.4419 8.44933C57.5102 8.49248 57.5839 8.52125 57.6648 8.53564C57.7439 8.55002 57.8249 8.54822 57.904 8.53204C57.9831 8.51406 58.0568 8.48169 58.1233 8.43674C58.1899 8.38999 58.2456 8.33245 58.2888 8.26412C58.3319 8.19579 58.3625 8.12207 58.3751 8.04296C58.3895 7.96384 58.3877 7.88472 58.3715 7.8056C58.3535 7.72649 58.3211 7.65456 58.2744 7.58803L56.2389 4.70387V2.83204L56.9402 3.98103C56.9744 4.06374 57.0247 4.13387 57.0894 4.1932C57.1542 4.25434 57.2279 4.29929 57.3124 4.32626C57.3951 4.35503 57.4814 4.36403 57.5695 4.35503C57.6594 4.34604 57.7403 4.31907 57.8177 4.27592C57.895 4.23097 57.9579 4.17343 58.0083 4.1015C58.0604 4.02958 58.0946 3.94866 58.1108 3.86235C58.1269 3.77604 58.1251 3.68973 58.1036 3.60522C58.082 3.51891 58.0442 3.4416 57.9903 3.37327L56.149 0.329069C56.1221 0.284117 56.0897 0.24276 56.0519 0.206798C56.0142 0.170836 55.9728 0.13847 55.9261 0.113296C55.8793 0.0863247 55.8308 0.0665458 55.7804 0.0539589C55.7283 0.041372 55.6761 0.0341797 55.624 0.0341797C55.57 0.0341797 55.5197 0.041372 55.4675 0.0539589C55.4172 0.0665458 55.3668 0.0863247 55.3219 0.113296C55.2751 0.13847 55.2338 0.170836 55.196 0.206798C55.1583 0.24276 55.1259 0.284117 55.0971 0.329069L53.2577 3.37327C53.2055 3.4416 53.1678 3.51891 53.148 3.60522C53.1282 3.68973 53.1282 3.77425 53.1444 3.86055C53.1624 3.94507 53.1965 4.02418 53.2469 4.09431C53.299 4.16623 53.362 4.22377 53.4375 4.26693C53.513 4.31008 53.5957 4.33705 53.682 4.34604C53.7701 4.35503 53.8546 4.34604 53.9391 4.31907C54.0219 4.2921 54.0956 4.24895 54.1603 4.18961C54.225 4.13207 54.2754 4.06194 54.3096 3.98103L55.0126 2.83204V4.70387L52.9754 7.58803C52.9286 7.65456 52.8962 7.72649 52.8783 7.8056C52.8603 7.88472 52.8585 7.96384 52.8729 8.04475C52.8873 8.12387 52.916 8.19759 52.961 8.26592C53.0041 8.33425 53.0599 8.39179 53.1264 8.43674Z" fill="#32501A"/>
</g>
<mask id="mask3_935_93" style="mask-type:luminance" maskUnits="userSpaceOnUse" x="47" y="9" width="34" height="21">
<path d="M47.0273 9.64844H80.6304V29.611H47.0273V9.64844Z" fill="white"/>
</mask>
<g mask="url(#mask3_935_93)">
<path d="M79.846 31.0699C79.927 31.0699 80.0061 31.0538 80.0798 31.0232C80.1553 30.9926 80.2219 30.9495 80.2794 30.8919C80.3369 30.8344 80.3819 30.7679 80.4124 30.6941C80.443 30.6186 80.4592 30.5413 80.4592 30.4604C80.4592 30.3813 80.443 30.3022 80.4124 30.2284C80.3819 30.1529 80.3369 30.0882 80.2794 30.0306C80.2219 29.9731 80.1553 29.9299 80.0798 29.8994C80.0061 29.867 79.927 29.8526 79.846 29.8526H77.9077C73.2865 26.3643 66.95 20.551 64.4147 10.2299C64.3823 10.095 64.3104 9.98353 64.1989 9.89722C64.0892 9.80911 63.9634 9.76596 63.8231 9.76416H63.7368C63.5947 9.76596 63.4689 9.80911 63.3592 9.89542C63.2477 9.98173 63.1758 10.095 63.1416 10.2299C60.5667 20.7434 54.3938 26.456 49.8914 29.8526H47.953C47.8721 29.8526 47.793 29.867 47.7192 29.8994C47.6437 29.9299 47.5772 29.9731 47.5197 30.0306C47.4621 30.0882 47.4172 30.1529 47.3866 30.2284C47.356 30.3022 47.3398 30.3813 47.3398 30.4604C47.3398 30.5413 47.356 30.6186 47.3866 30.6941C47.4172 30.7679 47.4621 30.8344 47.5197 30.8919C47.5772 30.9495 47.6437 30.9926 47.7192 31.0232C47.793 31.0538 47.8721 31.0699 47.953 31.0699H79.846ZM61.8578 29.8526L62.3666 26.6969C62.7101 24.9366 63.1722 26.2779 63.9004 26.2779C64.6269 26.2779 68.1853 24.9456 68.491 26.6969L69.1547 29.7302L61.8578 29.8526ZM63.7835 12.5279C66.4196 21.1228 71.6359 26.429 75.9136 29.8526H69.1815L68.491 26.6969C68.1853 25.093 65.8262 26.2779 63.9004 26.2779C61.7535 26.2779 61.3453 25.467 61.1403 26.4866L60.6153 29.8526H51.8819C56.0499 26.5046 61.1403 21.2541 63.7835 12.5279Z" fill="#32501A"/>
</g>
<path d="M76.245 10.7239C76.4644 10.7239 76.682 10.7023 76.8977 10.6592C77.1117 10.6178 77.3221 10.5549 77.5235 10.4704C77.7267 10.3876 77.9191 10.2851 78.1025 10.1647C78.2841 10.0424 78.4531 9.90575 78.6077 9.75111C78.7642 9.59827 78.9026 9.42925 79.0249 9.24944C79.1454 9.06783 79.2497 8.87723 79.3324 8.67584C79.4169 8.47445 79.4798 8.26587 79.523 8.0537C79.5661 7.83972 79.5877 7.62395 79.5877 7.40638C79.5877 7.18701 79.5661 6.97303 79.523 6.75906C79.4798 6.54508 79.4169 6.3383 79.3324 6.13691C79.2497 5.93552 79.1454 5.74313 79.0249 5.56332C78.9026 5.38171 78.7642 5.21448 78.6077 5.05985C78.4531 4.90521 78.2841 4.76855 78.1025 4.64808C77.9191 4.52581 77.7267 4.42332 77.5235 4.3406C77.3221 4.25789 77.1117 4.19496 76.8977 4.1518C76.682 4.10865 76.4644 4.08887 76.245 4.08887C76.0257 4.08887 75.8081 4.10865 75.5923 4.1518C75.3783 4.19496 75.168 4.25789 74.9666 4.3406C74.7634 4.42332 74.571 4.52581 74.3876 4.64808C74.206 4.76855 74.037 4.90521 73.8805 5.05985C73.7259 5.21448 73.5874 5.38171 73.4652 5.56332C73.3429 5.74313 73.2404 5.93552 73.1577 6.13691C73.0732 6.3383 73.0102 6.54508 72.9671 6.75906C72.9239 6.97303 72.9023 7.18701 72.9023 7.40638C72.9023 7.62395 72.9239 7.83972 72.9671 8.0519C73.0102 8.26587 73.0732 8.47445 73.1577 8.67404C73.2422 8.87543 73.3447 9.06783 73.4669 9.24764C73.5892 9.42925 73.7277 9.59647 73.8823 9.75111C74.037 9.90395 74.206 10.0424 74.3894 10.1629C74.571 10.2833 74.7634 10.3858 74.9666 10.4704C75.1698 10.5531 75.3783 10.616 75.5923 10.6592C75.8081 10.7023 76.0257 10.7221 76.245 10.7239ZM76.245 5.30619C76.3835 5.30619 76.5219 5.31877 76.6586 5.34574C76.7935 5.37272 76.9265 5.41228 77.0542 5.46622C77.1836 5.51836 77.3041 5.5831 77.421 5.66041C77.5361 5.73593 77.6422 5.82404 77.7411 5.92114C77.84 6.01824 77.9263 6.12433 78.0036 6.2394C78.0809 6.35448 78.1474 6.47496 78.1996 6.60262C78.2535 6.73029 78.2931 6.86155 78.32 6.99641C78.347 7.13127 78.3614 7.26792 78.3614 7.40638C78.3614 7.54303 78.347 7.67969 78.32 7.81455C78.2931 7.9512 78.2535 8.08247 78.1996 8.21013C78.1474 8.336 78.0809 8.45827 78.0036 8.57155C77.9263 8.68663 77.84 8.79272 77.7411 8.88982C77.6422 8.98871 77.5361 9.07502 77.421 9.15234C77.3041 9.22786 77.1836 9.29259 77.0542 9.34654C76.9265 9.39868 76.7935 9.43824 76.6586 9.46521C76.5219 9.49218 76.3835 9.50657 76.245 9.50657C76.1066 9.50657 75.9681 9.49218 75.8315 9.46521C75.6966 9.43824 75.5635 9.39868 75.4359 9.34654C75.3064 9.29259 75.1841 9.22786 75.0691 9.15234C74.954 9.07502 74.8461 8.98871 74.749 8.88982C74.6501 8.79272 74.562 8.68663 74.4865 8.57155C74.4092 8.45827 74.3426 8.336 74.2905 8.21013C74.2365 8.08247 74.197 7.9512 74.17 7.81455C74.143 7.67969 74.1287 7.54303 74.1287 7.40638C74.1287 7.26792 74.143 7.13127 74.17 6.99641C74.197 6.86155 74.2383 6.73029 74.2905 6.60262C74.3444 6.47496 74.4092 6.35448 74.4865 6.2394C74.5638 6.12433 74.6519 6.01824 74.749 5.92114C74.8479 5.82404 74.954 5.73773 75.0709 5.66041C75.1859 5.5831 75.3082 5.51836 75.4359 5.46622C75.5635 5.41407 75.6966 5.37272 75.8315 5.34574C75.9681 5.31877 76.1066 5.30619 76.245 5.30619Z" fill="#32501A"/>
<mask id="mask4_935_93" style="mask-type:luminance" maskUnits="userSpaceOnUse" x="75" y="0" width="2" height="4">
<path d="M75.1094 0H76.9506V3.20423H75.1094V0Z" fill="white"/>
</mask>
<g mask="url(#mask4_935_93)">
<path d="M76.1757 2.89828C76.2584 2.89828 76.3357 2.8821 76.4112 2.85153C76.4867 2.82096 76.5533 2.77601 76.609 2.72027C76.6665 2.66273 76.7115 2.5962 76.7421 2.52248C76.7744 2.44695 76.7888 2.36964 76.7888 2.28872V0.632663C76.7888 0.553547 76.7744 0.474429 76.7421 0.400707C76.7115 0.325187 76.6665 0.260455 76.609 0.202915C76.5533 0.145376 76.4867 0.102221 76.4112 0.0716532C76.3357 0.0410854 76.2584 0.0249023 76.1757 0.0249023C76.0947 0.0249023 76.0174 0.0410854 75.9419 0.0716532C75.8664 0.102221 75.7999 0.145376 75.7423 0.202915C75.6848 0.260455 75.6398 0.325187 75.6093 0.400707C75.5787 0.474429 75.5625 0.553547 75.5625 0.632663V2.28872C75.5625 2.36964 75.5787 2.44695 75.6093 2.52248C75.6398 2.5962 75.6848 2.66273 75.7423 2.72027C75.7999 2.77601 75.8664 2.82096 75.9419 2.85153C76.0174 2.8821 76.0947 2.89828 76.1757 2.89828Z" fill="#32501A"/>
</g>
<path d="M75.5547 12.369V14.025C75.5547 14.106 75.5709 14.1833 75.6014 14.2588C75.632 14.3325 75.677 14.3991 75.7345 14.4566C75.792 14.5123 75.8586 14.5573 75.9341 14.5879C76.0096 14.6184 76.0869 14.6346 76.1678 14.6346C76.2506 14.6346 76.3279 14.6184 76.4034 14.5879C76.4789 14.5573 76.5454 14.5123 76.6012 14.4566C76.6587 14.3991 76.7037 14.3325 76.7342 14.2588C76.7666 14.1833 76.781 14.106 76.781 14.025V12.369C76.781 12.2881 76.7666 12.2108 76.7342 12.137C76.7037 12.0615 76.6587 11.9968 76.6012 11.9392C76.5454 11.8817 76.4789 11.8385 76.4034 11.808C76.3279 11.7756 76.2506 11.7612 76.1678 11.7612C76.0869 11.7612 76.0096 11.7756 75.9341 11.808C75.8586 11.8385 75.792 11.8817 75.7345 11.9392C75.677 11.9968 75.632 12.0615 75.6014 12.137C75.5709 12.2108 75.5547 12.2881 75.5547 12.369Z" fill="#32501A"/>
<mask id="mask5_935_93" style="mask-type:luminance" maskUnits="userSpaceOnUse" x="80" y="6" width="4" height="3">
<path d="M80.1719 6.42627H83.5253V8.26753H80.1719V6.42627Z" fill="white"/>
</mask>
<g mask="url(#mask5_935_93)">
<path d="M80.6289 7.32846C80.6289 7.40938 80.6451 7.4867 80.6757 7.56222C80.708 7.63594 80.7512 7.70247 80.8087 7.76001C80.8663 7.81575 80.9328 7.8607 81.0083 7.89127C81.0838 7.92184 81.1611 7.93802 81.2439 7.93802H82.9107C82.9934 7.93802 83.0707 7.92184 83.1463 7.89127C83.2218 7.8607 83.2883 7.81575 83.344 7.76001C83.4016 7.70247 83.4465 7.63594 83.4771 7.56222C83.5095 7.4867 83.5239 7.40938 83.5239 7.32846C83.5239 7.24755 83.5095 7.17023 83.4771 7.09651C83.4465 7.02099 83.4016 6.95626 83.344 6.89872C83.2883 6.84118 83.2218 6.79802 83.1463 6.76745C83.0707 6.73509 82.9934 6.7207 82.9107 6.7207H81.2439C81.1611 6.7207 81.0838 6.73509 81.0083 6.76745C80.9328 6.79802 80.8663 6.84118 80.8087 6.89872C80.7512 6.95626 80.708 7.02099 80.6757 7.09651C80.6451 7.17023 80.6289 7.24755 80.6289 7.32846Z" fill="#32501A"/>
</g>
<path d="M69.4217 7.93851H71.0904C71.1713 7.93851 71.2504 7.92233 71.3259 7.89176C71.3997 7.86119 71.4662 7.81624 71.5237 7.7605C71.5813 7.70296 71.6262 7.63643 71.6568 7.56271C71.6892 7.48719 71.7035 7.40987 71.7035 7.32895C71.7035 7.24804 71.6892 7.17072 71.6568 7.097C71.6262 7.02148 71.5813 6.95674 71.5237 6.8992C71.4662 6.84166 71.3997 6.79851 71.3259 6.76794C71.2504 6.73558 71.1713 6.72119 71.0904 6.72119H69.4217C69.3408 6.72119 69.2635 6.73558 69.188 6.76794C69.1125 6.79851 69.0459 6.84166 68.9884 6.8992C68.9309 6.95674 68.8859 7.02148 68.8553 7.097C68.8248 7.17072 68.8086 7.24804 68.8086 7.32895C68.8086 7.40987 68.8248 7.48719 68.8553 7.56271C68.8859 7.63643 68.9309 7.70296 68.9884 7.7605C69.0459 7.81624 69.1125 7.86119 69.188 7.89176C69.2635 7.92233 69.3408 7.93851 69.4217 7.93851Z" fill="#32501A"/>
<path d="M80.9397 12.6747C81.0655 12.6765 81.1806 12.6423 81.2849 12.5758C81.3892 12.5075 81.4665 12.4158 81.5151 12.3007C81.5636 12.1874 81.5762 12.0687 81.551 11.9465C81.5258 11.826 81.4701 11.7199 81.382 11.6336L80.2006 10.4612C80.1431 10.4037 80.0766 10.3605 80.0011 10.33C79.9255 10.2976 79.8482 10.2832 79.7673 10.2832C79.6846 10.2832 79.6073 10.2976 79.5317 10.3282C79.4562 10.3605 79.3897 10.4037 79.3322 10.4612C79.2746 10.5188 79.2297 10.5835 79.1991 10.659C79.1685 10.7327 79.1523 10.8118 79.1523 10.891C79.1523 10.9719 79.1685 11.051 79.1991 11.1247C79.2315 11.2002 79.2746 11.265 79.3322 11.3225L80.5045 12.5039C80.625 12.6189 80.7706 12.6765 80.9397 12.6747Z" fill="#32501A"/>
<path d="M72.1493 4.19543C72.2068 4.25297 72.2734 4.29612 72.3471 4.32669C72.4226 4.35906 72.5017 4.37344 72.5826 4.37344C72.6636 4.37344 72.7427 4.35906 72.8182 4.32669C72.8919 4.29612 72.9584 4.25297 73.016 4.19543C73.0735 4.13789 73.1185 4.07316 73.149 3.99764C73.1814 3.92391 73.1958 3.8448 73.1958 3.76388C73.1958 3.68297 73.1814 3.60565 73.149 3.53193C73.1185 3.45641 73.0735 3.39167 73.016 3.33413L71.8364 2.15637C71.7771 2.09883 71.7106 2.05388 71.635 2.02331C71.5595 1.99095 71.4804 1.97656 71.3977 1.97656C71.315 1.97656 71.2359 1.99095 71.1603 2.02331C71.0848 2.05388 71.0165 2.09883 70.959 2.15637C70.9014 2.21391 70.8565 2.28044 70.8241 2.35596C70.7935 2.43148 70.7773 2.5088 70.7773 2.59152C70.7773 2.67243 70.7935 2.75155 70.8241 2.82707C70.8565 2.90259 70.9014 2.96912 70.959 3.02666L72.1493 4.19543Z" fill="#32501A"/>
<path d="M72.1493 10.4651L70.959 11.6339C70.9014 11.6914 70.8565 11.7579 70.8241 11.8335C70.7935 11.909 70.7773 11.9863 70.7773 12.069C70.7773 12.1499 70.7935 12.229 70.8241 12.3046C70.8565 12.3801 70.9014 12.4466 70.959 12.5042C71.0165 12.5617 71.0848 12.6066 71.1603 12.6372C71.2359 12.6678 71.315 12.684 71.3977 12.684C71.4804 12.684 71.5595 12.6678 71.635 12.6372C71.7106 12.6066 71.7771 12.5617 71.8364 12.5042L73.016 11.3318C73.0735 11.2742 73.1185 11.2095 73.149 11.134C73.1814 11.0603 73.1958 10.983 73.1958 10.902C73.1958 10.8211 73.1814 10.7438 73.149 10.6683C73.1185 10.5946 73.0735 10.528 73.016 10.4705C72.9584 10.413 72.8919 10.3698 72.8182 10.3392C72.7427 10.3087 72.6636 10.2925 72.5826 10.2925C72.5017 10.2925 72.4226 10.3087 72.3471 10.3392C72.2734 10.3698 72.2068 10.413 72.1493 10.4705V10.4651Z" fill="#32501A"/>
<path d="M79.7617 4.37524C79.9308 4.37344 80.0764 4.3141 80.1951 4.19543L81.3854 3.02666C81.443 2.96912 81.4879 2.90259 81.5185 2.82707C81.5508 2.75155 81.567 2.67243 81.567 2.59152C81.567 2.5088 81.5508 2.43148 81.5185 2.35596C81.4879 2.28044 81.443 2.21391 81.3854 2.15637C81.3261 2.09883 81.2596 2.05388 81.184 2.02331C81.1067 1.99095 81.0276 1.97656 80.9467 1.97656C80.864 1.97656 80.7849 1.99095 80.7093 2.02331C80.632 2.05388 80.5655 2.09883 80.5079 2.15637L79.3266 3.32694C79.2403 3.41505 79.1845 3.51934 79.1612 3.63801C79.136 3.75849 79.1486 3.87537 79.1953 3.99044C79.2421 4.10372 79.3176 4.19363 79.4201 4.26196C79.5226 4.33029 79.6359 4.36445 79.7599 4.36625L79.7617 4.37524Z" fill="#32501A"/>
<path d="M7.94045 42.6227C6.41026 42.6227 5.0419 42.2541 3.83357 41.5151C2.62524 40.7724 1.68303 39.7349 1.00694 38.4007C0.334448 37.0683 0 35.5435 0 33.8263C0 31.9959 0.384795 30.4387 1.15798 29.1585C1.93476 27.8746 2.95789 26.9072 4.22915 26.2599C5.50401 25.609 6.87597 25.2817 8.34322 25.2817C9.35915 25.2817 10.2996 25.3878 11.1627 25.5982C12.0293 25.805 12.9392 26.134 13.8886 26.5836C13.7052 27.4521 13.6153 28.7413 13.6153 30.4531C13.2449 30.6077 12.8043 30.6833 12.2919 30.6833C12.2235 29.0146 11.8819 27.8692 11.2634 27.2453C10.6484 26.6231 9.74215 26.3103 8.54461 26.3103C7.19243 26.3103 6.07401 26.6267 5.19294 27.2597C4.31007 27.8926 3.66095 28.7269 3.24379 29.7626C2.82663 30.7947 2.61805 31.9257 2.61805 33.1575C2.61805 34.6535 2.87158 36.0057 3.38044 37.214C3.88751 38.4223 4.62474 39.3717 5.58852 40.0622C6.5559 40.7527 7.69051 41.0979 8.99054 41.0979C9.77632 41.0979 10.5837 40.9666 11.4144 40.7023C12.2487 40.4344 13.0219 40.0748 13.7375 39.6235C13.8382 39.7098 13.9335 39.832 14.0252 39.9903C14.1152 40.1485 14.1709 40.2852 14.1907 40.4002C13.1729 41.1824 12.1858 41.7488 11.2274 42.0976C10.2672 42.4465 9.17215 42.6227 7.94045 42.6227Z" fill="#32501A"/>
<path d="M23.5867 38.7534C23.5867 39.2677 23.6227 39.6525 23.6946 39.9114C23.7701 40.1704 23.9176 40.361 24.1333 40.4796C24.3491 40.5947 24.6818 40.6702 25.1331 40.7026C25.1331 41.1881 25.0827 41.5711 24.982 41.8534C24.5649 41.8876 24.101 41.9757 23.5939 42.1195C23.085 42.2598 22.6409 42.4252 22.2633 42.623C22.0619 42.5403 21.9109 42.3892 21.8102 42.1627C21.7095 41.9379 21.6591 41.5999 21.6591 41.1485C21.6591 40.8662 21.6681 40.6505 21.6879 40.5012C21.4865 40.9867 21.1934 41.3931 20.8104 41.7239C20.1631 42.2903 19.2802 42.5726 18.1636 42.5726C17.1279 42.5726 16.3313 42.3407 15.7757 41.875C15.2183 41.4111 14.9414 40.7601 14.9414 39.9258C14.9414 38.944 15.2974 38.1565 16.0131 37.5667C16.7269 36.9733 17.5253 36.5508 18.4082 36.3008C19.2946 36.0527 20.271 35.8531 21.3355 35.7039C21.3355 34.6879 21.3013 33.9849 21.2348 33.5965C21.1665 33.2045 21.0262 32.8736 20.8104 32.6039C20.4113 32.1058 19.897 31.8559 19.2641 31.8559C18.5107 31.8559 17.964 32.1652 17.6242 32.7837C17.2825 33.3987 17.0955 34.055 17.0632 34.7545C16.8474 34.7545 16.6047 34.7383 16.3367 34.7041C16.0724 34.6717 15.88 34.6304 15.7613 34.5818C15.7793 34.4146 15.7901 34.1323 15.7901 33.7331C15.7901 32.9995 15.7398 32.3738 15.6391 31.8559C16.3044 31.5071 17.0218 31.2338 17.7896 31.036C18.5556 30.8346 19.2569 30.7339 19.8898 30.7339C21.0208 30.7339 21.9037 31.0504 22.5366 31.6833C22.934 32.0825 23.2073 32.6093 23.3566 33.2656C23.5094 33.9237 23.5867 34.8372 23.5867 36.0059V38.7534ZM21.3355 36.7252C20.5335 36.8259 19.8682 36.9481 19.336 37.092C18.8037 37.2323 18.3398 37.4912 17.9478 37.8688C17.5595 38.2428 17.3653 38.7642 17.3653 39.4295C17.3653 40.0103 17.5055 40.4509 17.7896 40.7529C18.0719 41.0514 18.4297 41.1989 18.8613 41.1989C19.2587 41.1989 19.6453 41.0748 20.0193 40.8249C20.3969 40.5767 20.7115 40.1847 20.9615 39.6525C21.2096 39.1203 21.3355 38.4622 21.3355 37.6746V36.7252Z" fill="#32501A"/>
<path d="M45.4548 41.4008C45.5357 41.6507 45.5771 42.0085 45.5771 42.4724C44.829 42.4239 43.9228 42.4005 42.8583 42.4005C41.7075 42.4005 40.715 42.4239 39.8807 42.4724C39.8807 41.9941 39.9238 41.6363 40.0101 41.4008C40.6754 41.3684 41.1285 41.2066 41.3695 40.9189C41.6086 40.6276 41.7291 40.063 41.7291 39.2286V35.431C41.7291 34.3144 41.5295 33.5286 41.1321 33.0719C40.733 32.6116 40.1683 32.3814 39.4347 32.3814C38.969 32.3814 38.5285 32.5235 38.1113 32.8058C37.6942 33.0899 37.3453 33.5466 37.0684 34.1796C36.7951 34.8125 36.6584 35.6037 36.6584 36.5531V39.2286C36.6584 40.063 36.7825 40.6276 37.0324 40.9189C37.2806 41.2066 37.7391 41.3684 38.4062 41.4008C38.4925 41.6507 38.5357 42.0085 38.5357 42.4724C37.687 42.4239 36.6944 42.4005 35.558 42.4005C34.4791 42.4005 33.4884 42.4239 32.5875 42.4724C32.5875 41.9941 32.6271 41.6363 32.7098 41.4008C33.3751 41.3684 33.8282 41.2066 34.0692 40.9189C34.3137 40.6276 34.436 40.063 34.436 39.2286V35.3016C34.436 34.1903 34.2346 33.4064 33.8318 32.9496C33.4326 32.4893 32.868 32.2592 32.1344 32.2592C31.6687 32.2592 31.2282 32.4012 30.811 32.6835C30.3938 32.9676 30.0486 33.4243 29.7753 34.0573C29.502 34.6902 29.3653 35.4814 29.3653 36.4308V39.2286C29.3653 40.045 29.4894 40.6024 29.7393 40.9045C29.9875 41.203 30.446 41.3684 31.1131 41.4008C31.194 41.6507 31.2353 42.0085 31.2353 42.4724C30.3866 42.4239 29.3959 42.4005 28.2649 42.4005C27.0799 42.4005 26.0892 42.4239 25.2944 42.4724C25.2944 41.9941 25.334 41.6363 25.4167 41.4008C26.082 41.3684 26.5351 41.2066 26.776 40.9189C27.0206 40.6276 27.1429 40.063 27.1429 39.2286V34.2802C27.1429 33.8487 27.0943 33.5143 26.999 33.2733C26.9073 33.0288 26.7275 32.8454 26.4596 32.7195C26.1952 32.5954 25.7979 32.5235 25.2656 32.5037C25.2656 32.1207 25.3393 31.8132 25.4886 31.5831C25.9237 31.5507 26.4901 31.4464 27.186 31.2738C27.8855 31.0976 28.3943 30.9178 28.7108 30.7344C29.0794 30.8495 29.2646 31.1839 29.2646 31.7341C29.2646 32.1333 29.2305 32.6655 29.1639 33.3308C29.3653 32.8669 29.4984 32.6008 29.5667 32.5325C29.8832 32.0632 30.3579 31.646 30.9908 31.281C31.6237 30.9178 32.3376 30.7344 33.1341 30.7344C33.8858 30.7344 34.5457 30.9052 35.1121 31.245C35.6767 31.5867 36.0848 32.1135 36.3348 32.8274C36.4013 33.0629 36.4355 33.2715 36.4355 33.4531C36.5506 33.1366 36.6908 32.8705 36.8598 32.6548C37.1907 32.1908 37.6672 31.7755 38.2911 31.4105C38.9187 31.0419 39.6325 30.8566 40.4345 30.8566C41.4648 30.8566 42.3081 31.1839 42.9662 31.8348C43.6279 32.4821 43.9588 33.5143 43.9588 34.9276V39.2286C43.9588 40.045 44.0684 40.6024 44.2896 40.9045C44.5144 41.203 44.9028 41.3684 45.4548 41.4008Z" fill="#32501A"/>
<path d="M51.8249 42.6235C51.138 42.6235 50.4457 42.5084 49.7463 42.2782V44.774C49.7463 45.4879 49.82 46.0327 49.9692 46.4067C50.1221 46.7843 50.3522 47.0432 50.6597 47.1835C50.9654 47.3273 51.4023 47.4154 51.9687 47.4496C52.055 47.6797 52.0982 48.0358 52.0982 48.5213C51.3304 48.4727 50.2803 48.4493 48.9479 48.4493C47.3979 48.4493 46.3011 48.4727 45.6538 48.5213C45.6538 48.0358 45.6933 47.6797 45.776 47.4496C46.4413 47.4154 46.8945 47.2518 47.1354 46.9605C47.38 46.6674 47.5022 46.1064 47.5022 45.2775V34.2802C47.5022 33.8487 47.4537 33.5143 47.3584 33.2733C47.2667 33.0288 47.0869 32.8454 46.8189 32.7195C46.5546 32.5954 46.1572 32.5235 45.625 32.5037C45.625 32.1207 45.6987 31.8132 45.848 31.5831C46.3658 31.5507 46.9574 31.45 47.6245 31.281C48.2898 31.1138 48.8148 30.9322 49.1996 30.7344C49.5629 30.8495 49.7463 31.2145 49.7463 31.8276C49.7463 32.0973 49.7175 32.3527 49.66 32.5972C49.6024 32.8382 49.5053 33.1834 49.3723 33.6329C49.5197 33.3165 49.7121 32.9676 49.9477 32.5828C50.2156 32.1333 50.6615 31.7125 51.2854 31.3242C51.9076 30.9322 52.6035 30.7344 53.3713 30.7344C54.8709 30.7344 56.0253 31.1767 56.8308 32.0578C57.64 32.9407 58.0463 34.2731 58.0463 36.0568C58.0463 37.2903 57.7874 38.4069 57.2695 39.4084C56.7517 40.4064 56.0181 41.1922 55.0687 41.7676C54.1193 42.3394 53.0368 42.6235 51.8249 42.6235ZM52.7743 32.3095C51.94 32.3095 51.2243 32.7015 50.6309 33.4819C50.0412 34.2641 49.7463 35.4634 49.7463 37.0781V40.6024C50.0627 40.8865 50.39 41.1023 50.7316 41.2497C51.0769 41.399 51.4814 41.4727 51.9471 41.4727C52.4974 41.4727 53.0476 41.3324 53.5942 41.0483C54.1444 40.766 54.6119 40.2626 54.9967 39.5379C55.3797 38.8151 55.5721 37.8369 55.5721 36.6034C55.5721 35.3052 55.3078 34.2641 54.781 33.4819C54.2577 32.7015 53.5888 32.3095 52.7743 32.3095Z" fill="#32501A"/>
<path d="M67.4519 33.1784C70.7173 33.3618 72.35 34.8111 72.35 37.5298C72.35 39.0258 71.7818 40.2126 70.6454 41.0901C69.5125 41.9639 67.7324 42.3991 65.3014 42.3991C62.1511 42.3991 59.5852 42.4225 57.6055 42.471C57.6055 41.8057 57.6558 41.2896 57.7565 40.9246C58.2204 40.8923 58.5729 40.806 58.8138 40.6657C59.0583 40.5219 59.2256 40.2737 59.3173 39.9177C59.4072 39.5581 59.4539 39.0114 59.4539 38.2778V29.4815C59.4539 28.8018 59.4072 28.2983 59.3173 27.9711C59.2256 27.6456 59.0619 27.4136 58.8282 27.2734C58.5926 27.1295 58.2348 27.0342 57.7565 26.9857C57.6558 26.5829 57.6055 26.0651 57.6055 25.4321C58.2528 25.4861 59.1339 25.5112 60.2523 25.5112C61.2341 25.5112 62.018 25.5023 62.6042 25.4825L65.0281 25.4609C67.1894 25.4609 68.7699 25.7558 69.7679 26.3456C70.7694 26.9353 71.2711 27.8973 71.2711 29.2297C71.2711 30.2654 70.933 31.1411 70.257 31.855C69.5845 32.5706 68.6495 33.0112 67.4519 33.1784ZM67.3728 29.9274C67.3728 28.9636 67.0797 28.2372 66.4953 27.7481C65.9145 27.2554 65.2079 27.0073 64.3735 27.0073C64.0085 27.0073 63.6435 27.0756 63.2803 27.2087V32.9051H64.129C65.2402 32.9051 66.0584 32.6389 66.5816 32.1067C67.1085 31.5745 67.3728 30.848 67.3728 29.9274ZM65.2726 40.9031C66.1591 40.9031 66.8513 40.6333 67.3512 40.0903C67.8493 39.5491 68.0992 38.7939 68.0992 37.8247C68.0992 36.5786 67.7198 35.7011 66.9628 35.1923C66.204 34.6852 65.1755 34.4299 63.8773 34.4299H63.2803V38.4001C63.2803 39.1013 63.3486 39.63 63.4889 39.9896C63.6327 40.3456 63.8449 40.5866 64.129 40.7161C64.4113 40.8419 64.7925 40.9031 65.2726 40.9031Z" fill="#32501A"/>
<path d="M86.7796 40.1996C86.7976 40.3003 86.8084 40.4585 86.8084 40.6743C86.8084 41.0771 86.7311 41.4547 86.5783 41.8035C85.1829 41.8521 83.926 42.1254 82.8094 42.6235C82.5253 42.5084 82.3221 42.3484 82.1981 42.1416C82.0722 41.9312 82.0111 41.6165 82.0111 41.1994C82.0111 40.8829 82.0506 40.4927 82.1333 40.027C81.8978 40.6132 81.6047 41.0627 81.2559 41.3792C80.4251 42.1614 79.3013 42.5515 77.8826 42.5515C76.6167 42.5515 75.6673 42.1991 75.0344 41.4943C74.4015 40.7858 74.085 39.6062 74.085 37.9556V35.057C74.085 34.5392 74.0508 34.149 73.9843 33.8847C73.9214 33.6167 73.7775 33.4154 73.5528 33.2805C73.3262 33.1474 72.972 33.0629 72.4883 33.0288C72.4883 32.3958 72.5782 31.9049 72.7616 31.5543C73.6283 31.5399 74.4482 31.4536 75.2214 31.2954C75.9982 31.1372 76.5952 30.9501 77.0123 30.7344C77.496 30.9178 77.7388 31.3745 77.7388 32.1081V37.3514C77.7388 38.4698 77.8538 39.2628 78.084 39.7321C78.3177 40.1978 78.7115 40.4298 79.2636 40.4298C79.9576 40.4298 80.5366 40.0917 80.9969 39.4156C81.4572 38.7396 81.6874 37.7524 81.6874 36.4524V34.9276C81.6874 34.4151 81.6389 34.0249 81.5436 33.7552C81.4519 33.4873 81.2774 33.2841 81.0185 33.1438C80.7632 33 80.3784 32.9209 79.8605 32.9065C79.8605 32.2412 79.9504 31.7485 80.1338 31.432C81.0832 31.4141 81.9643 31.3421 82.7807 31.2163C83.6006 31.0922 84.2084 30.9322 84.6075 30.7344C85.0912 30.9178 85.334 31.3745 85.334 32.1081V38.1785C85.334 38.7449 85.3663 39.1675 85.4347 39.4444C85.5012 39.7177 85.6325 39.9101 85.8302 40.0198C86.0316 40.1259 86.3481 40.1852 86.7796 40.1996Z" fill="#32501A"/>
<path d="M100.84 40.5738C100.84 41.045 100.756 41.4549 100.588 41.8038C99.9554 41.8379 99.3045 41.926 98.6392 42.0699C97.9775 42.2101 97.3698 42.3935 96.8195 42.6237C96.5354 42.5086 96.3322 42.3486 96.2082 42.1418C96.0823 41.9314 96.0212 41.6168 96.0212 41.1996C96.0212 40.8364 96.0715 40.4444 96.1722 40.0272C95.9025 40.5271 95.5932 40.9335 95.2444 41.2499C94.9459 41.6006 94.4964 41.917 93.8922 42.1993C93.2916 42.4816 92.6425 42.6237 91.9431 42.6237C90.4273 42.6237 89.2279 42.1885 88.3468 41.3147C87.464 40.4372 87.0234 39.1174 87.0234 37.3516C87.0234 36.0858 87.3111 34.9494 87.8865 33.9424C88.4619 32.9355 89.2693 32.1497 90.3104 31.5833C91.3497 31.0187 92.5436 30.7346 93.8922 30.7346C94.5251 30.7346 95.1257 30.8173 95.6975 30.9791V28.5337C95.6975 27.9152 95.5788 27.48 95.3451 27.2247C95.1095 26.9658 94.6115 26.8201 93.8491 26.786C93.8491 26.153 93.939 25.6621 94.1224 25.3115C94.9513 25.3115 95.8126 25.2288 96.7045 25.0598C97.5963 24.8925 98.2328 24.7001 98.6176 24.4844C99.1013 24.6858 99.3441 25.1281 99.3441 25.8078V38.1788C99.3441 38.7452 99.3764 39.1677 99.4448 39.4446C99.5113 39.7179 99.648 39.9103 99.8547 40.02C100.06 40.1261 100.382 40.1855 100.819 40.1998L100.84 40.5738ZM93.1226 40.5738C93.8365 40.5738 94.4424 40.2286 94.9423 39.5381C95.4458 38.8477 95.6975 37.7868 95.6975 36.3519V33.0793C95.4278 32.797 95.1473 32.5867 94.856 32.4464C94.5629 32.3025 94.2267 32.2306 93.8491 32.2306C93.0471 32.2306 92.3386 32.5687 91.7201 33.2448C91.1051 33.9173 90.7995 35.104 90.7995 36.805C90.7995 37.9558 91.0098 38.8728 91.4324 39.5525C91.8586 40.234 92.4214 40.5738 93.1226 40.5738Z" fill="#32501A"/>
<path d="M114.883 40.5734C114.883 41.0445 114.799 41.4544 114.631 41.8033C113.998 41.8374 113.347 41.9255 112.682 42.0694C112.02 42.2096 111.413 42.393 110.863 42.6232C110.578 42.5081 110.375 42.3481 110.251 42.1413C110.125 41.9309 110.064 41.6163 110.064 41.1991C110.064 40.8359 110.114 40.4439 110.215 40.0267C109.945 40.5266 109.636 40.933 109.287 41.2494C108.989 41.6001 108.539 41.9165 107.935 42.1989C107.335 42.4812 106.685 42.6232 105.986 42.6232C104.47 42.6232 103.271 42.1881 102.39 41.3142C101.507 40.4367 101.066 39.1169 101.066 37.3511C101.066 36.0853 101.354 34.9489 101.929 33.9419C102.505 32.935 103.312 32.1492 104.353 31.5828C105.393 31.0182 106.587 30.7341 107.935 30.7341C108.568 30.7341 109.169 30.8168 109.74 30.9787V28.5332C109.74 27.9147 109.622 27.4795 109.388 27.2242C109.153 26.9653 108.654 26.8196 107.892 26.7855C107.892 26.1525 107.982 25.6616 108.165 25.311C108.994 25.311 109.856 25.2283 110.747 25.0593C111.639 24.8921 112.276 24.6997 112.661 24.4839C113.144 24.6853 113.387 25.1276 113.387 25.8073V38.1783C113.387 38.7447 113.419 39.1672 113.488 39.4441C113.554 39.7175 113.691 39.9099 113.898 40.0195C114.103 40.1256 114.425 40.185 114.861 40.1994L114.883 40.5734ZM107.166 40.5734C107.879 40.5734 108.485 40.2281 108.985 39.5377C109.489 38.8472 109.74 37.7863 109.74 36.3514V33.0788C109.471 32.7965 109.19 32.5862 108.899 32.4459C108.606 32.3021 108.27 32.2301 107.892 32.2301C107.09 32.2301 106.382 32.5682 105.763 33.2443C105.148 33.9168 104.842 35.1035 104.842 36.8045C104.842 37.9553 105.053 38.8723 105.475 39.552C105.902 40.2335 106.464 40.5734 107.166 40.5734Z" fill="#32501A"/>
<path d="M125.57 30.9561C126.433 30.9561 127.24 30.9309 127.993 30.877C127.993 31.5297 127.909 32.0547 127.742 32.4521C127.325 32.5528 126.997 32.7434 126.764 33.0203C126.533 33.2936 126.249 33.8151 125.915 34.5811L122.247 43.3271C121.628 44.8087 121.076 45.9271 120.592 46.6859C120.112 47.4429 119.647 47.9536 119.197 48.2179C118.746 48.4858 118.221 48.6207 117.622 48.6207C117.104 48.6207 116.629 48.5236 116.198 48.333C115.766 48.1406 115.432 47.9032 115.198 47.6209C115.164 47.3854 115.148 47.1768 115.148 46.9952C115.148 46.3946 115.23 45.83 115.399 45.2978C116.165 45.5315 116.94 45.6502 117.723 45.6502C118.273 45.6502 118.726 45.5531 119.082 45.3625C119.442 45.1701 119.769 44.8393 120.067 44.37C120.186 44.2063 120.378 43.8323 120.643 43.2479C119.377 40.2523 118.086 37.4041 116.773 34.7033C116.356 33.8366 116.013 33.2648 115.745 32.9915C115.48 32.7182 115.148 32.5384 114.745 32.4521C114.616 32.0062 114.551 31.4811 114.551 30.877C115.5 30.9309 116.624 30.9561 117.924 30.9561C119.487 30.9561 120.776 30.9309 121.794 30.877C121.794 31.1647 121.767 31.4595 121.714 31.7616C121.666 32.0601 121.608 32.2903 121.542 32.4521C121.076 32.5384 120.743 32.6445 120.542 32.7686C120.344 32.8944 120.247 33.0814 120.247 33.3296C120.247 33.6281 120.413 34.092 120.743 34.7249C121.429 36.1598 122.02 37.5425 122.52 38.8749L124.066 34.9551C124.315 34.3041 124.44 33.8025 124.44 33.4518C124.44 33.1552 124.349 32.9322 124.167 32.7829C123.984 32.6301 123.694 32.5204 123.297 32.4521C123.142 32.0547 123.067 31.5297 123.067 30.877C123.833 30.9309 124.667 30.9561 125.57 30.9561Z" fill="#32501A"/>
</svg>
