<svg width="31" height="33" viewBox="0 0 31 33" fill="none" xmlns="http://www.w3.org/2000/svg">
<path d="M11.6122 3.16713e-05C18.0254 3.16713e-05 23.2244 5.52793 23.2244 12.3469C23.2244 19.1659 18.0254 24.6938 11.6122 24.6938C5.19894 24.6938 0 19.1659 0 12.347C0.00762959 5.5312 5.20204 0.0081123 11.6115 0H11.6122L11.6122 3.16713e-05ZM11.6122 21.8358C16.5409 21.8358 20.5364 17.5875 20.5364 12.3469C20.5364 7.10632 16.5409 2.85813 11.6122 2.85813C6.68349 2.85813 2.688 7.10641 2.688 12.347C2.69411 17.5849 6.68596 21.8293 11.6116 21.8358H11.6122L11.6122 21.8358ZM28.6139 32.4492L17.7181 20.8597L19.6185 18.8391L30.5184 30.4243L28.6139 32.4492Z" fill="#253A14"/>
</svg>
